<svg width="600" height="410" viewBox="0 0 600 410" fill="none" xmlns="http://www.w3.org/2000/svg">
<rect width="600" height="410" rx="30" fill="white"/>
<rect x="70" y="102" width="66" height="52" fill="white"/>
<rect x="136" y="102" width="66" height="52" fill="white"/>
<path d="M169.111 123.422V132H168.027V124.775L165.841 125.572V124.594L168.941 123.422H169.111Z" fill="#172755"/>
<rect x="202" y="102" width="66" height="52" fill="white"/>
<path d="M237.138 131.109V132H231.554V131.221L234.349 128.109C234.693 127.727 234.958 127.402 235.146 127.137C235.337 126.867 235.47 126.627 235.544 126.416C235.622 126.201 235.662 125.982 235.662 125.76C235.662 125.478 235.603 125.225 235.486 124.998C235.372 124.768 235.205 124.584 234.982 124.447C234.759 124.311 234.49 124.242 234.173 124.242C233.794 124.242 233.478 124.316 233.224 124.465C232.974 124.609 232.787 124.812 232.662 125.074C232.537 125.336 232.474 125.637 232.474 125.977H231.39C231.39 125.496 231.496 125.057 231.706 124.658C231.917 124.26 232.23 123.943 232.644 123.709C233.058 123.471 233.568 123.352 234.173 123.352C234.712 123.352 235.173 123.447 235.556 123.639C235.939 123.826 236.232 124.092 236.435 124.436C236.642 124.775 236.746 125.174 236.746 125.631C236.746 125.881 236.703 126.135 236.617 126.393C236.535 126.646 236.419 126.9 236.271 127.154C236.126 127.408 235.956 127.658 235.761 127.904C235.57 128.15 235.365 128.393 235.146 128.631L232.861 131.109H237.138Z" fill="#172755"/>
<rect x="268" y="102" width="66" height="52" fill="white"/>
<path d="M299.13 127.201H299.904C300.283 127.201 300.595 127.139 300.841 127.014C301.091 126.885 301.277 126.711 301.398 126.492C301.523 126.27 301.585 126.02 301.585 125.742C301.585 125.414 301.531 125.139 301.421 124.916C301.312 124.693 301.148 124.525 300.929 124.412C300.71 124.299 300.433 124.242 300.097 124.242C299.792 124.242 299.523 124.303 299.289 124.424C299.058 124.541 298.876 124.709 298.744 124.928C298.615 125.146 298.55 125.404 298.55 125.701H297.466C297.466 125.268 297.576 124.873 297.794 124.518C298.013 124.162 298.32 123.879 298.714 123.668C299.113 123.457 299.574 123.352 300.097 123.352C300.613 123.352 301.064 123.443 301.451 123.627C301.837 123.807 302.138 124.076 302.353 124.436C302.568 124.791 302.675 125.234 302.675 125.766C302.675 125.98 302.624 126.211 302.523 126.457C302.425 126.699 302.271 126.926 302.06 127.137C301.853 127.348 301.583 127.521 301.251 127.658C300.919 127.791 300.521 127.857 300.056 127.857H299.13V127.201ZM299.13 128.092V127.441H300.056C300.599 127.441 301.048 127.506 301.404 127.635C301.759 127.764 302.039 127.936 302.242 128.15C302.449 128.365 302.593 128.602 302.675 128.859C302.761 129.113 302.804 129.367 302.804 129.621C302.804 130.02 302.736 130.373 302.599 130.682C302.466 130.99 302.277 131.252 302.031 131.467C301.789 131.682 301.503 131.844 301.175 131.953C300.847 132.062 300.49 132.117 300.103 132.117C299.732 132.117 299.382 132.064 299.054 131.959C298.73 131.853 298.443 131.701 298.193 131.502C297.943 131.299 297.747 131.051 297.607 130.758C297.466 130.461 297.396 130.123 297.396 129.744H298.48C298.48 130.041 298.544 130.301 298.673 130.523C298.806 130.746 298.994 130.92 299.236 131.045C299.482 131.166 299.771 131.227 300.103 131.227C300.435 131.227 300.72 131.17 300.958 131.057C301.201 130.939 301.386 130.764 301.515 130.529C301.648 130.295 301.714 130 301.714 129.645C301.714 129.289 301.64 128.998 301.492 128.771C301.343 128.541 301.132 128.371 300.859 128.262C300.589 128.148 300.271 128.092 299.904 128.092H299.13Z" fill="#172755"/>
<rect x="334" y="102" width="66" height="52" fill="white"/>
<path d="M369.314 129.129V130.02H363.15V129.381L366.97 123.469H367.855L366.906 125.18L364.38 129.129H369.314ZM368.124 123.469V132H367.04V123.469H368.124Z" fill="#172755"/>
<rect x="400" y="102" width="66" height="52" fill="white"/>
<path d="M430.919 127.939L430.052 127.717L430.48 123.469H434.857V124.471H431.4L431.142 126.791C431.298 126.701 431.496 126.617 431.734 126.539C431.976 126.461 432.253 126.422 432.566 126.422C432.96 126.422 433.314 126.49 433.626 126.627C433.939 126.76 434.205 126.951 434.423 127.201C434.646 127.451 434.816 127.752 434.933 128.103C435.05 128.455 435.109 128.848 435.109 129.281C435.109 129.691 435.052 130.068 434.939 130.412C434.83 130.756 434.664 131.057 434.441 131.314C434.218 131.568 433.937 131.766 433.597 131.906C433.261 132.047 432.865 132.117 432.408 132.117C432.064 132.117 431.738 132.07 431.429 131.977C431.124 131.879 430.851 131.732 430.609 131.537C430.371 131.338 430.175 131.092 430.023 130.799C429.874 130.502 429.781 130.154 429.742 129.756H430.773C430.82 130.076 430.914 130.346 431.054 130.564C431.195 130.783 431.378 130.949 431.605 131.062C431.835 131.172 432.103 131.227 432.408 131.227C432.665 131.227 432.894 131.182 433.093 131.092C433.292 131.002 433.46 130.873 433.597 130.705C433.734 130.537 433.837 130.334 433.908 130.096C433.982 129.857 434.019 129.59 434.019 129.293C434.019 129.023 433.982 128.773 433.908 128.543C433.833 128.312 433.722 128.111 433.574 127.939C433.429 127.768 433.251 127.635 433.04 127.541C432.83 127.443 432.587 127.395 432.314 127.395C431.951 127.395 431.675 127.443 431.488 127.541C431.304 127.639 431.115 127.771 430.919 127.939Z" fill="#172755"/>
<rect x="466" y="102" width="66" height="52" fill="white"/>
<path d="M499.708 123.457H499.802V124.377H499.708C499.134 124.377 498.654 124.471 498.267 124.658C497.88 124.842 497.574 125.09 497.347 125.402C497.121 125.711 496.956 126.059 496.855 126.445C496.757 126.832 496.708 127.225 496.708 127.623V128.877C496.708 129.256 496.753 129.592 496.843 129.885C496.933 130.174 497.056 130.418 497.212 130.617C497.369 130.816 497.544 130.967 497.74 131.068C497.939 131.17 498.146 131.221 498.361 131.221C498.611 131.221 498.833 131.174 499.029 131.08C499.224 130.982 499.388 130.848 499.521 130.676C499.658 130.5 499.761 130.293 499.831 130.055C499.902 129.816 499.937 129.555 499.937 129.27C499.937 129.016 499.906 128.771 499.843 128.537C499.781 128.299 499.685 128.088 499.556 127.904C499.427 127.717 499.265 127.57 499.07 127.465C498.878 127.355 498.65 127.301 498.384 127.301C498.083 127.301 497.802 127.375 497.54 127.523C497.283 127.668 497.07 127.859 496.902 128.098C496.738 128.332 496.644 128.588 496.621 128.865L496.046 128.859C496.101 128.422 496.203 128.049 496.351 127.74C496.503 127.428 496.691 127.174 496.914 126.978C497.14 126.779 497.392 126.635 497.669 126.545C497.951 126.451 498.247 126.404 498.56 126.404C498.986 126.404 499.353 126.484 499.662 126.645C499.97 126.805 500.224 127.02 500.423 127.289C500.622 127.555 500.769 127.855 500.863 128.191C500.96 128.523 501.009 128.865 501.009 129.217C501.009 129.619 500.953 129.996 500.839 130.348C500.726 130.699 500.556 131.008 500.33 131.273C500.107 131.539 499.831 131.746 499.503 131.895C499.175 132.043 498.794 132.117 498.361 132.117C497.9 132.117 497.497 132.023 497.154 131.836C496.81 131.645 496.525 131.391 496.298 131.074C496.072 130.758 495.902 130.406 495.789 130.02C495.675 129.633 495.619 129.24 495.619 128.842V128.332C495.619 127.73 495.679 127.141 495.8 126.562C495.921 125.984 496.13 125.461 496.427 124.992C496.728 124.523 497.144 124.15 497.675 123.873C498.206 123.596 498.884 123.457 499.708 123.457Z" fill="#172755"/>
<rect x="70" y="154" width="66" height="52" fill="white"/>
<path d="M105.062 175.469V176.078L101.529 184H100.386L103.914 176.359H99.2963V175.469H105.062Z" fill="#172755"/>
<rect x="136" y="154" width="66" height="52" fill="white"/>
<circle cx="168.5" cy="179.5" r="19.5" fill="#0088F0"/>
<path d="M170.927 181.691C170.927 182.211 170.806 182.652 170.564 183.016C170.326 183.375 170.001 183.648 169.591 183.836C169.185 184.023 168.726 184.117 168.214 184.117C167.703 184.117 167.242 184.023 166.831 183.836C166.421 183.648 166.097 183.375 165.859 183.016C165.621 182.652 165.501 182.211 165.501 181.691C165.501 181.352 165.566 181.041 165.695 180.76C165.828 180.475 166.013 180.227 166.251 180.016C166.494 179.805 166.779 179.643 167.107 179.529C167.439 179.412 167.804 179.353 168.203 179.353C168.726 179.353 169.193 179.455 169.603 179.658C170.013 179.857 170.335 180.133 170.57 180.484C170.808 180.836 170.927 181.238 170.927 181.691ZM169.837 181.668C169.837 181.352 169.769 181.072 169.632 180.83C169.496 180.584 169.304 180.393 169.058 180.256C168.812 180.119 168.527 180.051 168.203 180.051C167.871 180.051 167.583 180.119 167.341 180.256C167.103 180.393 166.917 180.584 166.785 180.83C166.652 181.072 166.585 181.352 166.585 181.668C166.585 181.996 166.65 182.277 166.779 182.512C166.912 182.742 167.099 182.92 167.341 183.045C167.587 183.166 167.878 183.227 168.214 183.227C168.55 183.227 168.839 183.166 169.081 183.045C169.324 182.92 169.509 182.742 169.638 182.512C169.771 182.277 169.837 181.996 169.837 181.668ZM170.728 177.689C170.728 178.103 170.619 178.477 170.4 178.809C170.181 179.141 169.882 179.402 169.503 179.594C169.124 179.785 168.695 179.881 168.214 179.881C167.726 179.881 167.29 179.785 166.908 179.594C166.529 179.402 166.232 179.141 166.017 178.809C165.802 178.477 165.695 178.103 165.695 177.689C165.695 177.193 165.802 176.771 166.017 176.424C166.236 176.076 166.535 175.811 166.914 175.627C167.292 175.443 167.724 175.352 168.208 175.352C168.697 175.352 169.13 175.443 169.509 175.627C169.888 175.811 170.185 176.076 170.4 176.424C170.619 176.771 170.728 177.193 170.728 177.689ZM169.644 177.707C169.644 177.422 169.583 177.17 169.462 176.951C169.341 176.732 169.173 176.561 168.958 176.436C168.744 176.307 168.494 176.242 168.208 176.242C167.923 176.242 167.673 176.303 167.458 176.424C167.247 176.541 167.081 176.709 166.96 176.928C166.843 177.146 166.785 177.406 166.785 177.707C166.785 178 166.843 178.256 166.96 178.475C167.081 178.693 167.249 178.863 167.464 178.984C167.679 179.105 167.929 179.166 168.214 179.166C168.499 179.166 168.747 179.105 168.958 178.984C169.173 178.863 169.341 178.693 169.462 178.475C169.583 178.256 169.644 178 169.644 177.707Z" fill="#EEEEF7"/>
<rect x="202" y="154" width="66" height="52" fill="white"/>
<circle cx="234.5" cy="179.5" r="19.5" fill="#0088F0"/>
<path d="M232.626 183.092H232.738C233.363 183.092 233.871 183.004 234.261 182.828C234.652 182.652 234.953 182.416 235.164 182.119C235.374 181.822 235.519 181.488 235.597 181.117C235.675 180.742 235.714 180.357 235.714 179.963V178.656C235.714 178.27 235.669 177.926 235.58 177.625C235.494 177.324 235.372 177.072 235.216 176.869C235.064 176.666 234.89 176.512 234.695 176.406C234.499 176.301 234.292 176.248 234.074 176.248C233.824 176.248 233.599 176.299 233.4 176.4C233.205 176.498 233.039 176.637 232.902 176.816C232.769 176.996 232.667 177.207 232.597 177.449C232.527 177.691 232.492 177.955 232.492 178.24C232.492 178.494 232.523 178.74 232.585 178.978C232.648 179.217 232.744 179.432 232.872 179.623C233.001 179.814 233.162 179.967 233.353 180.08C233.548 180.189 233.777 180.244 234.039 180.244C234.281 180.244 234.507 180.197 234.718 180.103C234.933 180.006 235.122 179.875 235.287 179.711C235.455 179.543 235.587 179.353 235.685 179.143C235.787 178.932 235.845 178.711 235.861 178.48H236.376C236.376 178.805 236.312 179.125 236.183 179.441C236.058 179.754 235.882 180.039 235.656 180.297C235.429 180.555 235.164 180.762 234.859 180.918C234.554 181.07 234.222 181.146 233.863 181.146C233.441 181.146 233.076 181.064 232.767 180.9C232.458 180.736 232.205 180.518 232.005 180.244C231.81 179.971 231.664 179.666 231.566 179.33C231.472 178.99 231.425 178.646 231.425 178.299C231.425 177.893 231.482 177.512 231.595 177.156C231.708 176.801 231.876 176.488 232.099 176.219C232.322 175.945 232.597 175.732 232.925 175.58C233.257 175.428 233.64 175.352 234.074 175.352C234.562 175.352 234.978 175.449 235.322 175.645C235.665 175.84 235.945 176.102 236.16 176.43C236.378 176.758 236.539 177.127 236.64 177.537C236.742 177.947 236.792 178.369 236.792 178.803V179.195C236.792 179.637 236.763 180.086 236.705 180.543C236.65 180.996 236.542 181.43 236.382 181.844C236.226 182.258 235.997 182.629 235.697 182.957C235.396 183.281 235.003 183.539 234.519 183.73C234.039 183.918 233.445 184.012 232.738 184.012H232.626V183.092Z" fill="#EEEEF7"/>
<rect x="268" y="154" width="66" height="52" fill="white"/>
<circle cx="300.5" cy="179.5" r="19.5" fill="#0088F0"/>
<path d="M297.236 175.422V184H296.152V176.775L293.966 177.572V176.594L297.066 175.422H297.236ZM305.779 179.055V180.355C305.779 181.055 305.716 181.645 305.591 182.125C305.466 182.605 305.287 182.992 305.052 183.285C304.818 183.578 304.535 183.791 304.203 183.924C303.874 184.053 303.503 184.117 303.089 184.117C302.761 184.117 302.458 184.076 302.181 183.994C301.904 183.912 301.654 183.781 301.431 183.602C301.212 183.418 301.025 183.18 300.869 182.887C300.712 182.594 300.593 182.238 300.511 181.82C300.429 181.402 300.388 180.914 300.388 180.355V179.055C300.388 178.355 300.451 177.77 300.576 177.297C300.705 176.824 300.886 176.445 301.121 176.16C301.355 175.871 301.636 175.664 301.964 175.539C302.296 175.414 302.667 175.352 303.078 175.352C303.41 175.352 303.714 175.393 303.992 175.475C304.273 175.553 304.523 175.68 304.742 175.855C304.96 176.027 305.146 176.258 305.298 176.547C305.455 176.832 305.574 177.182 305.656 177.596C305.738 178.01 305.779 178.496 305.779 179.055ZM304.689 180.531V178.873C304.689 178.49 304.665 178.154 304.619 177.865C304.576 177.572 304.511 177.322 304.425 177.115C304.339 176.908 304.23 176.74 304.097 176.611C303.968 176.482 303.818 176.389 303.646 176.33C303.478 176.268 303.289 176.236 303.078 176.236C302.82 176.236 302.591 176.285 302.392 176.383C302.193 176.477 302.025 176.627 301.888 176.834C301.755 177.041 301.654 177.312 301.583 177.648C301.513 177.984 301.478 178.393 301.478 178.873V180.531C301.478 180.914 301.499 181.252 301.542 181.545C301.589 181.838 301.658 182.092 301.747 182.307C301.837 182.518 301.947 182.691 302.076 182.828C302.205 182.965 302.353 183.066 302.521 183.133C302.693 183.195 302.882 183.227 303.089 183.227C303.355 183.227 303.587 183.176 303.787 183.074C303.986 182.973 304.152 182.814 304.285 182.6C304.421 182.381 304.523 182.102 304.589 181.762C304.656 181.418 304.689 181.008 304.689 180.531Z" fill="#EEEEF7"/>
<rect x="334" y="154" width="66" height="52" fill="white"/>
<path d="M363.236 175.422V184H362.152V176.775L359.966 177.572V176.594L363.066 175.422H363.236ZM369.986 175.422V184H368.902V176.775L366.716 177.572V176.594L369.816 175.422H369.986Z" fill="#172755"/>
<rect x="400" y="154" width="66" height="52" fill="white"/>
<path d="M429.236 175.422V184H428.152V176.775L425.966 177.572V176.594L429.066 175.422H429.236ZM438.013 183.109V184H432.429V183.221L435.224 180.109C435.568 179.727 435.833 179.402 436.021 179.137C436.212 178.867 436.345 178.627 436.419 178.416C436.497 178.201 436.537 177.982 436.537 177.76C436.537 177.478 436.478 177.225 436.361 176.998C436.247 176.768 436.08 176.584 435.857 176.447C435.634 176.311 435.365 176.242 435.048 176.242C434.669 176.242 434.353 176.316 434.099 176.465C433.849 176.609 433.662 176.812 433.537 177.074C433.412 177.336 433.349 177.637 433.349 177.977H432.265C432.265 177.496 432.371 177.057 432.581 176.658C432.792 176.26 433.105 175.943 433.519 175.709C433.933 175.471 434.443 175.352 435.048 175.352C435.587 175.352 436.048 175.447 436.431 175.639C436.814 175.826 437.107 176.092 437.31 176.436C437.517 176.775 437.621 177.174 437.621 177.631C437.621 177.881 437.578 178.135 437.492 178.393C437.41 178.646 437.294 178.9 437.146 179.154C437.001 179.408 436.831 179.658 436.636 179.904C436.445 180.15 436.24 180.393 436.021 180.631L433.736 183.109H438.013Z" fill="#172755"/>
<rect x="466" y="154" width="66" height="52" fill="white"/>
<path d="M495.236 175.422V184H494.152V176.775L491.966 177.572V176.594L495.066 175.422H495.236ZM500.005 179.201H500.779C501.158 179.201 501.47 179.139 501.716 179.014C501.966 178.885 502.152 178.711 502.273 178.492C502.398 178.27 502.46 178.02 502.46 177.742C502.46 177.414 502.406 177.139 502.296 176.916C502.187 176.693 502.023 176.525 501.804 176.412C501.585 176.299 501.308 176.242 500.972 176.242C500.667 176.242 500.398 176.303 500.164 176.424C499.933 176.541 499.751 176.709 499.619 176.928C499.49 177.146 499.425 177.404 499.425 177.701H498.341C498.341 177.268 498.451 176.873 498.669 176.518C498.888 176.162 499.195 175.879 499.589 175.668C499.988 175.457 500.449 175.352 500.972 175.352C501.488 175.352 501.939 175.443 502.326 175.627C502.712 175.807 503.013 176.076 503.228 176.436C503.443 176.791 503.55 177.234 503.55 177.766C503.55 177.98 503.499 178.211 503.398 178.457C503.3 178.699 503.146 178.926 502.935 179.137C502.728 179.348 502.458 179.521 502.126 179.658C501.794 179.791 501.396 179.857 500.931 179.857H500.005V179.201ZM500.005 180.092V179.441H500.931C501.474 179.441 501.923 179.506 502.279 179.635C502.634 179.764 502.914 179.936 503.117 180.15C503.324 180.365 503.468 180.602 503.55 180.859C503.636 181.113 503.679 181.367 503.679 181.621C503.679 182.02 503.611 182.373 503.474 182.682C503.341 182.99 503.152 183.252 502.906 183.467C502.664 183.682 502.378 183.844 502.05 183.953C501.722 184.062 501.365 184.117 500.978 184.117C500.607 184.117 500.257 184.064 499.929 183.959C499.605 183.853 499.318 183.701 499.068 183.502C498.818 183.299 498.622 183.051 498.482 182.758C498.341 182.461 498.271 182.123 498.271 181.744H499.355C499.355 182.041 499.419 182.301 499.548 182.523C499.681 182.746 499.869 182.92 500.111 183.045C500.357 183.166 500.646 183.227 500.978 183.227C501.31 183.227 501.595 183.17 501.833 183.057C502.076 182.939 502.261 182.764 502.39 182.529C502.523 182.295 502.589 182 502.589 181.645C502.589 181.289 502.515 180.998 502.367 180.771C502.218 180.541 502.007 180.371 501.734 180.262C501.464 180.148 501.146 180.092 500.779 180.092H500.005Z" fill="#172755"/>
<rect x="70" y="206" width="66" height="52" fill="white"/>
<path d="M99.2358 227.422V236H98.1518V228.775L95.9662 229.572V228.594L99.0658 227.422H99.2358ZM108.189 233.129V234.02H102.025V233.381L105.845 227.469H106.73L105.781 229.18L103.255 233.129H108.189ZM106.999 227.469V236H105.915V227.469H106.999Z" fill="#172755"/>
<rect x="136" y="206" width="66" height="52" fill="white"/>
<path d="M165.236 227.422V236H164.152V228.775L161.966 229.572V228.594L165.066 227.422H165.236ZM169.794 231.939L168.927 231.717L169.355 227.469H173.732V228.471H170.275L170.017 230.791C170.173 230.701 170.371 230.617 170.609 230.539C170.851 230.461 171.128 230.422 171.441 230.422C171.835 230.422 172.189 230.49 172.501 230.627C172.814 230.76 173.08 230.951 173.298 231.201C173.521 231.451 173.691 231.752 173.808 232.103C173.925 232.455 173.984 232.848 173.984 233.281C173.984 233.691 173.927 234.068 173.814 234.412C173.705 234.756 173.539 235.057 173.316 235.314C173.093 235.568 172.812 235.766 172.472 235.906C172.136 236.047 171.74 236.117 171.283 236.117C170.939 236.117 170.613 236.07 170.304 235.977C169.999 235.879 169.726 235.732 169.484 235.537C169.246 235.338 169.05 235.092 168.898 234.799C168.749 234.502 168.656 234.154 168.617 233.756H169.648C169.695 234.076 169.789 234.346 169.929 234.564C170.07 234.783 170.253 234.949 170.48 235.062C170.71 235.172 170.978 235.227 171.283 235.227C171.54 235.227 171.769 235.182 171.968 235.092C172.167 235.002 172.335 234.873 172.472 234.705C172.609 234.537 172.712 234.334 172.783 234.096C172.857 233.857 172.894 233.59 172.894 233.293C172.894 233.023 172.857 232.773 172.783 232.543C172.708 232.312 172.597 232.111 172.449 231.939C172.304 231.768 172.126 231.635 171.915 231.541C171.705 231.443 171.462 231.395 171.189 231.395C170.826 231.395 170.55 231.443 170.363 231.541C170.179 231.639 169.99 231.771 169.794 231.939Z" fill="#172755"/>
<rect x="202" y="206" width="66" height="52" fill="white"/>
<path d="M231.236 227.422V236H230.152V228.775L227.966 229.572V228.594L231.066 227.422H231.236ZM238.583 227.457H238.677V228.377H238.583C238.009 228.377 237.529 228.471 237.142 228.658C236.755 228.842 236.449 229.09 236.222 229.402C235.996 229.711 235.831 230.059 235.73 230.445C235.632 230.832 235.583 231.225 235.583 231.623V232.877C235.583 233.256 235.628 233.592 235.718 233.885C235.808 234.174 235.931 234.418 236.087 234.617C236.244 234.816 236.419 234.967 236.615 235.068C236.814 235.17 237.021 235.221 237.236 235.221C237.486 235.221 237.708 235.174 237.904 235.08C238.099 234.982 238.263 234.848 238.396 234.676C238.533 234.5 238.636 234.293 238.706 234.055C238.777 233.816 238.812 233.555 238.812 233.27C238.812 233.016 238.781 232.771 238.718 232.537C238.656 232.299 238.56 232.088 238.431 231.904C238.302 231.717 238.14 231.57 237.945 231.465C237.753 231.355 237.525 231.301 237.259 231.301C236.958 231.301 236.677 231.375 236.415 231.523C236.158 231.668 235.945 231.859 235.777 232.098C235.613 232.332 235.519 232.588 235.496 232.865L234.921 232.859C234.976 232.422 235.078 232.049 235.226 231.74C235.378 231.428 235.566 231.174 235.789 230.978C236.015 230.779 236.267 230.635 236.544 230.545C236.826 230.451 237.122 230.404 237.435 230.404C237.861 230.404 238.228 230.484 238.537 230.645C238.845 230.805 239.099 231.02 239.298 231.289C239.497 231.555 239.644 231.855 239.738 232.191C239.835 232.523 239.884 232.865 239.884 233.217C239.884 233.619 239.828 233.996 239.714 234.348C239.601 234.699 239.431 235.008 239.205 235.273C238.982 235.539 238.706 235.746 238.378 235.895C238.05 236.043 237.669 236.117 237.236 236.117C236.775 236.117 236.372 236.023 236.029 235.836C235.685 235.645 235.4 235.391 235.173 235.074C234.947 234.758 234.777 234.406 234.664 234.02C234.55 233.633 234.494 233.24 234.494 232.842V232.332C234.494 231.73 234.554 231.141 234.675 230.562C234.796 229.984 235.005 229.461 235.302 228.992C235.603 228.523 236.019 228.15 236.55 227.873C237.081 227.596 237.759 227.457 238.583 227.457Z" fill="#172755"/>
<rect x="268" y="206" width="66" height="52" fill="white"/>
<path d="M297.236 227.422V236H296.152V228.775L293.966 229.572V228.594L297.066 227.422H297.236ZM305.937 227.469V228.078L302.404 236H301.261L304.789 228.359H300.171V227.469H305.937Z" fill="#172755"/>
<rect x="334" y="206" width="66" height="52" fill="white"/>
<circle cx="366.5" cy="231.5" r="19.5" fill="#EF2A82"/>
<path d="M363.236 227.422V236H362.152V228.775L359.966 229.572V228.594L363.066 227.422H363.236ZM371.802 233.691C371.802 234.211 371.681 234.652 371.439 235.016C371.201 235.375 370.876 235.648 370.466 235.836C370.06 236.023 369.601 236.117 369.089 236.117C368.578 236.117 368.117 236.023 367.706 235.836C367.296 235.648 366.972 235.375 366.734 235.016C366.496 234.652 366.376 234.211 366.376 233.691C366.376 233.352 366.441 233.041 366.57 232.76C366.703 232.475 366.888 232.227 367.126 232.016C367.369 231.805 367.654 231.643 367.982 231.529C368.314 231.412 368.679 231.353 369.078 231.353C369.601 231.353 370.068 231.455 370.478 231.658C370.888 231.857 371.21 232.133 371.445 232.484C371.683 232.836 371.802 233.238 371.802 233.691ZM370.712 233.668C370.712 233.352 370.644 233.072 370.507 232.83C370.371 232.584 370.179 232.393 369.933 232.256C369.687 232.119 369.402 232.051 369.078 232.051C368.746 232.051 368.458 232.119 368.216 232.256C367.978 232.393 367.792 232.584 367.66 232.83C367.527 233.072 367.46 233.352 367.46 233.668C367.46 233.996 367.525 234.277 367.654 234.512C367.787 234.742 367.974 234.92 368.216 235.045C368.462 235.166 368.753 235.227 369.089 235.227C369.425 235.227 369.714 235.166 369.956 235.045C370.199 234.92 370.384 234.742 370.513 234.512C370.646 234.277 370.712 233.996 370.712 233.668ZM371.603 229.689C371.603 230.103 371.494 230.477 371.275 230.809C371.056 231.141 370.757 231.402 370.378 231.594C369.999 231.785 369.57 231.881 369.089 231.881C368.601 231.881 368.165 231.785 367.783 231.594C367.404 231.402 367.107 231.141 366.892 230.809C366.677 230.477 366.57 230.103 366.57 229.689C366.57 229.193 366.677 228.771 366.892 228.424C367.111 228.076 367.41 227.811 367.789 227.627C368.167 227.443 368.599 227.352 369.083 227.352C369.572 227.352 370.005 227.443 370.384 227.627C370.763 227.811 371.06 228.076 371.275 228.424C371.494 228.771 371.603 229.193 371.603 229.689ZM370.519 229.707C370.519 229.422 370.458 229.17 370.337 228.951C370.216 228.732 370.048 228.561 369.833 228.436C369.619 228.307 369.369 228.242 369.083 228.242C368.798 228.242 368.548 228.303 368.333 228.424C368.122 228.541 367.956 228.709 367.835 228.928C367.718 229.146 367.66 229.406 367.66 229.707C367.66 230 367.718 230.256 367.835 230.475C367.956 230.693 368.124 230.863 368.339 230.984C368.554 231.105 368.804 231.166 369.089 231.166C369.374 231.166 369.622 231.105 369.833 230.984C370.048 230.863 370.216 230.693 370.337 230.475C370.458 230.256 370.519 230 370.519 229.707Z" fill="#EEEEF7"/>
<rect x="400" y="206" width="66" height="52" fill="white"/>
<path d="M429.236 227.422V236H428.152V228.775L425.966 229.572V228.594L429.066 227.422H429.236ZM433.501 235.092H433.613C434.238 235.092 434.746 235.004 435.136 234.828C435.527 234.652 435.828 234.416 436.039 234.119C436.249 233.822 436.394 233.488 436.472 233.117C436.55 232.742 436.589 232.357 436.589 231.963V230.656C436.589 230.27 436.544 229.926 436.455 229.625C436.369 229.324 436.247 229.072 436.091 228.869C435.939 228.666 435.765 228.512 435.57 228.406C435.374 228.301 435.167 228.248 434.949 228.248C434.699 228.248 434.474 228.299 434.275 228.4C434.08 228.498 433.914 228.637 433.777 228.816C433.644 228.996 433.542 229.207 433.472 229.449C433.402 229.691 433.367 229.955 433.367 230.24C433.367 230.494 433.398 230.74 433.46 230.978C433.523 231.217 433.619 231.432 433.747 231.623C433.876 231.814 434.037 231.967 434.228 232.08C434.423 232.189 434.652 232.244 434.914 232.244C435.156 232.244 435.382 232.197 435.593 232.103C435.808 232.006 435.997 231.875 436.162 231.711C436.33 231.543 436.462 231.353 436.56 231.143C436.662 230.932 436.72 230.711 436.736 230.48H437.251C437.251 230.805 437.187 231.125 437.058 231.441C436.933 231.754 436.757 232.039 436.531 232.297C436.304 232.555 436.039 232.762 435.734 232.918C435.429 233.07 435.097 233.146 434.738 233.146C434.316 233.146 433.951 233.064 433.642 232.9C433.333 232.736 433.08 232.518 432.88 232.244C432.685 231.971 432.539 231.666 432.441 231.33C432.347 230.99 432.3 230.646 432.3 230.299C432.3 229.893 432.357 229.512 432.47 229.156C432.583 228.801 432.751 228.488 432.974 228.219C433.197 227.945 433.472 227.732 433.8 227.58C434.132 227.428 434.515 227.352 434.949 227.352C435.437 227.352 435.853 227.449 436.197 227.645C436.54 227.84 436.82 228.102 437.035 228.43C437.253 228.758 437.414 229.127 437.515 229.537C437.617 229.947 437.667 230.369 437.667 230.803V231.195C437.667 231.637 437.638 232.086 437.58 232.543C437.525 232.996 437.417 233.43 437.257 233.844C437.101 234.258 436.872 234.629 436.572 234.957C436.271 235.281 435.878 235.539 435.394 235.73C434.914 235.918 434.32 236.012 433.613 236.012H433.501V235.092Z" fill="#172755"/>
<rect x="466" y="206" width="66" height="52" fill="white"/>
<path d="M497.263 235.109V236H491.679V235.221L494.474 232.109C494.818 231.727 495.083 231.402 495.271 231.137C495.462 230.867 495.595 230.627 495.669 230.416C495.747 230.201 495.787 229.982 495.787 229.76C495.787 229.478 495.728 229.225 495.611 228.998C495.497 228.768 495.33 228.584 495.107 228.447C494.884 228.311 494.615 228.242 494.298 228.242C493.919 228.242 493.603 228.316 493.349 228.465C493.099 228.609 492.912 228.812 492.787 229.074C492.662 229.336 492.599 229.637 492.599 229.977H491.515C491.515 229.496 491.621 229.057 491.831 228.658C492.042 228.26 492.355 227.943 492.769 227.709C493.183 227.471 493.693 227.352 494.298 227.352C494.837 227.352 495.298 227.447 495.681 227.639C496.064 227.826 496.357 228.092 496.56 228.436C496.767 228.775 496.871 229.174 496.871 229.631C496.871 229.881 496.828 230.135 496.742 230.393C496.66 230.646 496.544 230.9 496.396 231.154C496.251 231.408 496.081 231.658 495.886 231.904C495.695 232.15 495.49 232.393 495.271 232.631L492.986 235.109H497.263ZM503.779 231.055V232.355C503.779 233.055 503.716 233.645 503.591 234.125C503.466 234.605 503.287 234.992 503.052 235.285C502.818 235.578 502.535 235.791 502.203 235.924C501.874 236.053 501.503 236.117 501.089 236.117C500.761 236.117 500.458 236.076 500.181 235.994C499.904 235.912 499.654 235.781 499.431 235.602C499.212 235.418 499.025 235.18 498.869 234.887C498.712 234.594 498.593 234.238 498.511 233.82C498.429 233.402 498.388 232.914 498.388 232.355V231.055C498.388 230.355 498.451 229.77 498.576 229.297C498.705 228.824 498.886 228.445 499.121 228.16C499.355 227.871 499.636 227.664 499.964 227.539C500.296 227.414 500.667 227.352 501.078 227.352C501.41 227.352 501.714 227.393 501.992 227.475C502.273 227.553 502.523 227.68 502.742 227.855C502.96 228.027 503.146 228.258 503.298 228.547C503.455 228.832 503.574 229.182 503.656 229.596C503.738 230.01 503.779 230.496 503.779 231.055ZM502.689 232.531V230.873C502.689 230.49 502.665 230.154 502.619 229.865C502.576 229.572 502.511 229.322 502.425 229.115C502.339 228.908 502.23 228.74 502.097 228.611C501.968 228.482 501.818 228.389 501.646 228.33C501.478 228.268 501.289 228.236 501.078 228.236C500.82 228.236 500.591 228.285 500.392 228.383C500.193 228.477 500.025 228.627 499.888 228.834C499.755 229.041 499.654 229.312 499.583 229.648C499.513 229.984 499.478 230.393 499.478 230.873V232.531C499.478 232.914 499.499 233.252 499.542 233.545C499.589 233.838 499.658 234.092 499.747 234.307C499.837 234.518 499.947 234.691 500.076 234.828C500.205 234.965 500.353 235.066 500.521 235.133C500.693 235.195 500.882 235.227 501.089 235.227C501.355 235.227 501.587 235.176 501.787 235.074C501.986 234.973 502.152 234.814 502.285 234.6C502.421 234.381 502.523 234.102 502.589 233.762C502.656 233.418 502.689 233.008 502.689 232.531Z" fill="#172755"/>
<rect x="70" y="258" width="66" height="52" fill="white"/>
<path d="M101.263 287.109V288H95.6791V287.221L98.4741 284.109C98.8178 283.727 99.0834 283.402 99.2709 283.137C99.4623 282.867 99.5951 282.627 99.6694 282.416C99.7475 282.201 99.7866 281.982 99.7866 281.76C99.7866 281.478 99.728 281.225 99.6108 280.998C99.4975 280.768 99.3295 280.584 99.1069 280.447C98.8842 280.311 98.6147 280.242 98.2983 280.242C97.9194 280.242 97.603 280.316 97.3491 280.465C97.0991 280.609 96.9116 280.812 96.7866 281.074C96.6616 281.336 96.5991 281.637 96.5991 281.977H95.5151C95.5151 281.496 95.6205 281.057 95.8315 280.658C96.0424 280.26 96.3549 279.943 96.769 279.709C97.183 279.471 97.6928 279.352 98.2983 279.352C98.8373 279.352 99.2983 279.447 99.6811 279.639C100.064 279.826 100.357 280.092 100.56 280.436C100.767 280.775 100.871 281.174 100.871 281.631C100.871 281.881 100.828 282.135 100.742 282.393C100.66 282.646 100.544 282.9 100.396 283.154C100.251 283.408 100.081 283.658 99.8862 283.904C99.6948 284.15 99.4897 284.393 99.2709 284.631L96.9858 287.109H101.263ZM105.986 279.422V288H104.902V280.775L102.716 281.572V280.594L105.816 279.422H105.986Z" fill="#172755"/>
<rect x="136" y="258" width="66" height="52" fill="white"/>
<path d="M167.263 287.109V288H161.679V287.221L164.474 284.109C164.818 283.727 165.083 283.402 165.271 283.137C165.462 282.867 165.595 282.627 165.669 282.416C165.747 282.201 165.787 281.982 165.787 281.76C165.787 281.478 165.728 281.225 165.611 280.998C165.497 280.768 165.33 280.584 165.107 280.447C164.884 280.311 164.615 280.242 164.298 280.242C163.919 280.242 163.603 280.316 163.349 280.465C163.099 280.609 162.912 280.812 162.787 281.074C162.662 281.336 162.599 281.637 162.599 281.977H161.515C161.515 281.496 161.621 281.057 161.831 280.658C162.042 280.26 162.355 279.943 162.769 279.709C163.183 279.471 163.693 279.352 164.298 279.352C164.837 279.352 165.298 279.447 165.681 279.639C166.064 279.826 166.357 280.092 166.56 280.436C166.767 280.775 166.871 281.174 166.871 281.631C166.871 281.881 166.828 282.135 166.742 282.393C166.66 282.646 166.544 282.9 166.396 283.154C166.251 283.408 166.081 283.658 165.886 283.904C165.695 284.15 165.49 284.393 165.271 284.631L162.986 287.109H167.263ZM174.013 287.109V288H168.429V287.221L171.224 284.109C171.568 283.727 171.833 283.402 172.021 283.137C172.212 282.867 172.345 282.627 172.419 282.416C172.497 282.201 172.537 281.982 172.537 281.76C172.537 281.478 172.478 281.225 172.361 280.998C172.247 280.768 172.08 280.584 171.857 280.447C171.634 280.311 171.365 280.242 171.048 280.242C170.669 280.242 170.353 280.316 170.099 280.465C169.849 280.609 169.662 280.812 169.537 281.074C169.412 281.336 169.349 281.637 169.349 281.977H168.265C168.265 281.496 168.371 281.057 168.581 280.658C168.792 280.26 169.105 279.943 169.519 279.709C169.933 279.471 170.443 279.352 171.048 279.352C171.587 279.352 172.048 279.447 172.431 279.639C172.814 279.826 173.107 280.092 173.31 280.436C173.517 280.775 173.621 281.174 173.621 281.631C173.621 281.881 173.578 282.135 173.492 282.393C173.41 282.646 173.294 282.9 173.146 283.154C173.001 283.408 172.831 283.658 172.636 283.904C172.445 284.15 172.24 284.393 172.021 284.631L169.736 287.109H174.013Z" fill="#172755"/>
<rect x="202" y="258" width="66" height="52" fill="white"/>
<path d="M233.263 287.109V288H227.679V287.221L230.474 284.109C230.818 283.727 231.083 283.402 231.271 283.137C231.462 282.867 231.595 282.627 231.669 282.416C231.747 282.201 231.787 281.982 231.787 281.76C231.787 281.478 231.728 281.225 231.611 280.998C231.497 280.768 231.33 280.584 231.107 280.447C230.884 280.311 230.615 280.242 230.298 280.242C229.919 280.242 229.603 280.316 229.349 280.465C229.099 280.609 228.912 280.812 228.787 281.074C228.662 281.336 228.599 281.637 228.599 281.977H227.515C227.515 281.496 227.621 281.057 227.831 280.658C228.042 280.26 228.355 279.943 228.769 279.709C229.183 279.471 229.693 279.352 230.298 279.352C230.837 279.352 231.298 279.447 231.681 279.639C232.064 279.826 232.357 280.092 232.56 280.436C232.767 280.775 232.871 281.174 232.871 281.631C232.871 281.881 232.828 282.135 232.742 282.393C232.66 282.646 232.544 282.9 232.396 283.154C232.251 283.408 232.081 283.658 231.886 283.904C231.695 284.15 231.49 284.393 231.271 284.631L228.986 287.109H233.263ZM236.005 283.201H236.779C237.158 283.201 237.47 283.139 237.716 283.014C237.966 282.885 238.152 282.711 238.273 282.492C238.398 282.27 238.46 282.02 238.46 281.742C238.46 281.414 238.406 281.139 238.296 280.916C238.187 280.693 238.023 280.525 237.804 280.412C237.585 280.299 237.308 280.242 236.972 280.242C236.667 280.242 236.398 280.303 236.164 280.424C235.933 280.541 235.751 280.709 235.619 280.928C235.49 281.146 235.425 281.404 235.425 281.701H234.341C234.341 281.268 234.451 280.873 234.669 280.518C234.888 280.162 235.195 279.879 235.589 279.668C235.988 279.457 236.449 279.352 236.972 279.352C237.488 279.352 237.939 279.443 238.326 279.627C238.712 279.807 239.013 280.076 239.228 280.436C239.443 280.791 239.55 281.234 239.55 281.766C239.55 281.98 239.499 282.211 239.398 282.457C239.3 282.699 239.146 282.926 238.935 283.137C238.728 283.348 238.458 283.521 238.126 283.658C237.794 283.791 237.396 283.857 236.931 283.857H236.005V283.201ZM236.005 284.092V283.441H236.931C237.474 283.441 237.923 283.506 238.279 283.635C238.634 283.764 238.914 283.936 239.117 284.15C239.324 284.365 239.468 284.602 239.55 284.859C239.636 285.113 239.679 285.367 239.679 285.621C239.679 286.02 239.611 286.373 239.474 286.682C239.341 286.99 239.152 287.252 238.906 287.467C238.664 287.682 238.378 287.844 238.05 287.953C237.722 288.062 237.365 288.117 236.978 288.117C236.607 288.117 236.257 288.064 235.929 287.959C235.605 287.853 235.318 287.701 235.068 287.502C234.818 287.299 234.622 287.051 234.482 286.758C234.341 286.461 234.271 286.123 234.271 285.744H235.355C235.355 286.041 235.419 286.301 235.548 286.523C235.681 286.746 235.869 286.92 236.111 287.045C236.357 287.166 236.646 287.227 236.978 287.227C237.31 287.227 237.595 287.17 237.833 287.057C238.076 286.939 238.261 286.764 238.39 286.529C238.523 286.295 238.589 286 238.589 285.645C238.589 285.289 238.515 284.998 238.367 284.771C238.218 284.541 238.007 284.371 237.734 284.262C237.464 284.148 237.146 284.092 236.779 284.092H236.005Z" fill="#172755"/>
<rect x="268" y="258" width="66" height="52" fill="white"/>
<path d="M299.263 287.109V288H293.679V287.221L296.474 284.109C296.818 283.727 297.083 283.402 297.271 283.137C297.462 282.867 297.595 282.627 297.669 282.416C297.747 282.201 297.787 281.982 297.787 281.76C297.787 281.478 297.728 281.225 297.611 280.998C297.497 280.768 297.33 280.584 297.107 280.447C296.884 280.311 296.615 280.242 296.298 280.242C295.919 280.242 295.603 280.316 295.349 280.465C295.099 280.609 294.912 280.812 294.787 281.074C294.662 281.336 294.599 281.637 294.599 281.977H293.515C293.515 281.496 293.621 281.057 293.831 280.658C294.042 280.26 294.355 279.943 294.769 279.709C295.183 279.471 295.693 279.352 296.298 279.352C296.837 279.352 297.298 279.447 297.681 279.639C298.064 279.826 298.357 280.092 298.56 280.436C298.767 280.775 298.871 281.174 298.871 281.631C298.871 281.881 298.828 282.135 298.742 282.393C298.66 282.646 298.544 282.9 298.396 283.154C298.251 283.408 298.081 283.658 297.886 283.904C297.695 284.15 297.49 284.393 297.271 284.631L294.986 287.109H299.263ZM306.189 285.129V286.02H300.025V285.381L303.845 279.469H304.73L303.781 281.18L301.255 285.129H306.189ZM304.999 279.469V288H303.915V279.469H304.999Z" fill="#172755"/>
<rect x="334" y="258" width="66" height="52" fill="white"/>
<path d="M365.263 287.109V288H359.679V287.221L362.474 284.109C362.818 283.727 363.083 283.402 363.271 283.137C363.462 282.867 363.595 282.627 363.669 282.416C363.747 282.201 363.787 281.982 363.787 281.76C363.787 281.478 363.728 281.225 363.611 280.998C363.497 280.768 363.33 280.584 363.107 280.447C362.884 280.311 362.615 280.242 362.298 280.242C361.919 280.242 361.603 280.316 361.349 280.465C361.099 280.609 360.912 280.812 360.787 281.074C360.662 281.336 360.599 281.637 360.599 281.977H359.515C359.515 281.496 359.621 281.057 359.831 280.658C360.042 280.26 360.355 279.943 360.769 279.709C361.183 279.471 361.693 279.352 362.298 279.352C362.837 279.352 363.298 279.447 363.681 279.639C364.064 279.826 364.357 280.092 364.56 280.436C364.767 280.775 364.871 281.174 364.871 281.631C364.871 281.881 364.828 282.135 364.742 282.393C364.66 282.646 364.544 282.9 364.396 283.154C364.251 283.408 364.081 283.658 363.886 283.904C363.695 284.15 363.49 284.393 363.271 284.631L360.986 287.109H365.263ZM367.794 283.939L366.927 283.717L367.355 279.469H371.732V280.471H368.275L368.017 282.791C368.173 282.701 368.371 282.617 368.609 282.539C368.851 282.461 369.128 282.422 369.441 282.422C369.835 282.422 370.189 282.49 370.501 282.627C370.814 282.76 371.08 282.951 371.298 283.201C371.521 283.451 371.691 283.752 371.808 284.103C371.925 284.455 371.984 284.848 371.984 285.281C371.984 285.691 371.927 286.068 371.814 286.412C371.705 286.756 371.539 287.057 371.316 287.314C371.093 287.568 370.812 287.766 370.472 287.906C370.136 288.047 369.74 288.117 369.283 288.117C368.939 288.117 368.613 288.07 368.304 287.977C367.999 287.879 367.726 287.732 367.484 287.537C367.246 287.338 367.05 287.092 366.898 286.799C366.749 286.502 366.656 286.154 366.617 285.756H367.648C367.695 286.076 367.789 286.346 367.929 286.564C368.07 286.783 368.253 286.949 368.48 287.062C368.71 287.172 368.978 287.227 369.283 287.227C369.54 287.227 369.769 287.182 369.968 287.092C370.167 287.002 370.335 286.873 370.472 286.705C370.609 286.537 370.712 286.334 370.783 286.096C370.857 285.857 370.894 285.59 370.894 285.293C370.894 285.023 370.857 284.773 370.783 284.543C370.708 284.312 370.597 284.111 370.449 283.939C370.304 283.768 370.126 283.635 369.915 283.541C369.705 283.443 369.462 283.395 369.189 283.395C368.826 283.395 368.55 283.443 368.363 283.541C368.179 283.639 367.99 283.771 367.794 283.939Z" fill="#172755"/>
<rect x="400" y="258" width="66" height="52" fill="white"/>
<path d="M431.263 287.109V288H425.679V287.221L428.474 284.109C428.818 283.727 429.083 283.402 429.271 283.137C429.462 282.867 429.595 282.627 429.669 282.416C429.747 282.201 429.787 281.982 429.787 281.76C429.787 281.478 429.728 281.225 429.611 280.998C429.497 280.768 429.33 280.584 429.107 280.447C428.884 280.311 428.615 280.242 428.298 280.242C427.919 280.242 427.603 280.316 427.349 280.465C427.099 280.609 426.912 280.812 426.787 281.074C426.662 281.336 426.599 281.637 426.599 281.977H425.515C425.515 281.496 425.621 281.057 425.831 280.658C426.042 280.26 426.355 279.943 426.769 279.709C427.183 279.471 427.693 279.352 428.298 279.352C428.837 279.352 429.298 279.447 429.681 279.639C430.064 279.826 430.357 280.092 430.56 280.436C430.767 280.775 430.871 281.174 430.871 281.631C430.871 281.881 430.828 282.135 430.742 282.393C430.66 282.646 430.544 282.9 430.396 283.154C430.251 283.408 430.081 283.658 429.886 283.904C429.695 284.15 429.49 284.393 429.271 284.631L426.986 287.109H431.263ZM436.583 279.457H436.677V280.377H436.583C436.009 280.377 435.529 280.471 435.142 280.658C434.755 280.842 434.449 281.09 434.222 281.402C433.996 281.711 433.831 282.059 433.73 282.445C433.632 282.832 433.583 283.225 433.583 283.623V284.877C433.583 285.256 433.628 285.592 433.718 285.885C433.808 286.174 433.931 286.418 434.087 286.617C434.244 286.816 434.419 286.967 434.615 287.068C434.814 287.17 435.021 287.221 435.236 287.221C435.486 287.221 435.708 287.174 435.904 287.08C436.099 286.982 436.263 286.848 436.396 286.676C436.533 286.5 436.636 286.293 436.706 286.055C436.777 285.816 436.812 285.555 436.812 285.27C436.812 285.016 436.781 284.771 436.718 284.537C436.656 284.299 436.56 284.088 436.431 283.904C436.302 283.717 436.14 283.57 435.945 283.465C435.753 283.355 435.525 283.301 435.259 283.301C434.958 283.301 434.677 283.375 434.415 283.523C434.158 283.668 433.945 283.859 433.777 284.098C433.613 284.332 433.519 284.588 433.496 284.865L432.921 284.859C432.976 284.422 433.078 284.049 433.226 283.74C433.378 283.428 433.566 283.174 433.789 282.978C434.015 282.779 434.267 282.635 434.544 282.545C434.826 282.451 435.122 282.404 435.435 282.404C435.861 282.404 436.228 282.484 436.537 282.645C436.845 282.805 437.099 283.02 437.298 283.289C437.497 283.555 437.644 283.855 437.738 284.191C437.835 284.523 437.884 284.865 437.884 285.217C437.884 285.619 437.828 285.996 437.714 286.348C437.601 286.699 437.431 287.008 437.205 287.273C436.982 287.539 436.706 287.746 436.378 287.895C436.05 288.043 435.669 288.117 435.236 288.117C434.775 288.117 434.372 288.023 434.029 287.836C433.685 287.645 433.4 287.391 433.173 287.074C432.947 286.758 432.777 286.406 432.664 286.02C432.55 285.633 432.494 285.24 432.494 284.842V284.332C432.494 283.73 432.554 283.141 432.675 282.562C432.796 281.984 433.005 281.461 433.302 280.992C433.603 280.523 434.019 280.15 434.55 279.873C435.081 279.596 435.759 279.457 436.583 279.457Z" fill="#172755"/>
<rect x="466" y="258" width="66" height="52" fill="white"/>
<path d="M497.263 287.109V288H491.679V287.221L494.474 284.109C494.818 283.727 495.083 283.402 495.271 283.137C495.462 282.867 495.595 282.627 495.669 282.416C495.747 282.201 495.787 281.982 495.787 281.76C495.787 281.478 495.728 281.225 495.611 280.998C495.497 280.768 495.33 280.584 495.107 280.447C494.884 280.311 494.615 280.242 494.298 280.242C493.919 280.242 493.603 280.316 493.349 280.465C493.099 280.609 492.912 280.812 492.787 281.074C492.662 281.336 492.599 281.637 492.599 281.977H491.515C491.515 281.496 491.621 281.057 491.831 280.658C492.042 280.26 492.355 279.943 492.769 279.709C493.183 279.471 493.693 279.352 494.298 279.352C494.837 279.352 495.298 279.447 495.681 279.639C496.064 279.826 496.357 280.092 496.56 280.436C496.767 280.775 496.871 281.174 496.871 281.631C496.871 281.881 496.828 282.135 496.742 282.393C496.66 282.646 496.544 282.9 496.396 283.154C496.251 283.408 496.081 283.658 495.886 283.904C495.695 284.15 495.49 284.393 495.271 284.631L492.986 287.109H497.263ZM503.937 279.469V280.078L500.404 288H499.261L502.789 280.359H498.171V279.469H503.937Z" fill="#172755"/>
<rect x="70" y="310" width="66" height="52" fill="white"/>
<path d="M101.263 339.109V340H95.6791V339.221L98.4741 336.109C98.8178 335.727 99.0834 335.402 99.2709 335.137C99.4623 334.867 99.5951 334.627 99.6694 334.416C99.7475 334.201 99.7866 333.982 99.7866 333.76C99.7866 333.479 99.728 333.225 99.6108 332.998C99.4975 332.768 99.3295 332.584 99.1069 332.447C98.8842 332.311 98.6147 332.242 98.2983 332.242C97.9194 332.242 97.603 332.316 97.3491 332.465C97.0991 332.609 96.9116 332.812 96.7866 333.074C96.6616 333.336 96.5991 333.637 96.5991 333.977H95.5151C95.5151 333.496 95.6205 333.057 95.8315 332.658C96.0424 332.26 96.3549 331.943 96.769 331.709C97.183 331.471 97.6928 331.352 98.2983 331.352C98.8373 331.352 99.2983 331.447 99.6811 331.639C100.064 331.826 100.357 332.092 100.56 332.436C100.767 332.775 100.871 333.174 100.871 333.631C100.871 333.881 100.828 334.135 100.742 334.393C100.66 334.646 100.544 334.9 100.396 335.154C100.251 335.408 100.081 335.658 99.8862 335.904C99.6948 336.15 99.4897 336.393 99.2709 336.631L96.9858 339.109H101.263ZM107.802 337.691C107.802 338.211 107.681 338.652 107.439 339.016C107.201 339.375 106.876 339.648 106.466 339.836C106.06 340.023 105.601 340.117 105.089 340.117C104.578 340.117 104.117 340.023 103.706 339.836C103.296 339.648 102.972 339.375 102.734 339.016C102.496 338.652 102.376 338.211 102.376 337.691C102.376 337.352 102.441 337.041 102.57 336.76C102.703 336.475 102.888 336.227 103.126 336.016C103.369 335.805 103.654 335.643 103.982 335.529C104.314 335.412 104.679 335.354 105.078 335.354C105.601 335.354 106.068 335.455 106.478 335.658C106.888 335.857 107.21 336.133 107.445 336.484C107.683 336.836 107.802 337.238 107.802 337.691ZM106.712 337.668C106.712 337.352 106.644 337.072 106.507 336.83C106.371 336.584 106.179 336.393 105.933 336.256C105.687 336.119 105.402 336.051 105.078 336.051C104.746 336.051 104.458 336.119 104.216 336.256C103.978 336.393 103.792 336.584 103.66 336.83C103.527 337.072 103.46 337.352 103.46 337.668C103.46 337.996 103.525 338.277 103.654 338.512C103.787 338.742 103.974 338.92 104.216 339.045C104.462 339.166 104.753 339.227 105.089 339.227C105.425 339.227 105.714 339.166 105.956 339.045C106.199 338.92 106.384 338.742 106.513 338.512C106.646 338.277 106.712 337.996 106.712 337.668ZM107.603 333.689C107.603 334.104 107.494 334.477 107.275 334.809C107.056 335.141 106.757 335.402 106.378 335.594C105.999 335.785 105.57 335.881 105.089 335.881C104.601 335.881 104.165 335.785 103.783 335.594C103.404 335.402 103.107 335.141 102.892 334.809C102.677 334.477 102.57 334.104 102.57 333.689C102.57 333.193 102.677 332.771 102.892 332.424C103.111 332.076 103.41 331.811 103.789 331.627C104.167 331.443 104.599 331.352 105.083 331.352C105.572 331.352 106.005 331.443 106.384 331.627C106.763 331.811 107.06 332.076 107.275 332.424C107.494 332.771 107.603 333.193 107.603 333.689ZM106.519 333.707C106.519 333.422 106.458 333.17 106.337 332.951C106.216 332.732 106.048 332.561 105.833 332.436C105.619 332.307 105.369 332.242 105.083 332.242C104.798 332.242 104.548 332.303 104.333 332.424C104.122 332.541 103.956 332.709 103.835 332.928C103.718 333.146 103.66 333.406 103.66 333.707C103.66 334 103.718 334.256 103.835 334.475C103.956 334.693 104.124 334.863 104.339 334.984C104.554 335.105 104.804 335.166 105.089 335.166C105.374 335.166 105.622 335.105 105.833 334.984C106.048 334.863 106.216 334.693 106.337 334.475C106.458 334.256 106.519 334 106.519 333.707Z" fill="#172755"/>
<rect x="136" y="310" width="66" height="52" fill="white"/>
<path d="M167.263 339.109V340H161.679V339.221L164.474 336.109C164.818 335.727 165.083 335.402 165.271 335.137C165.462 334.867 165.595 334.627 165.669 334.416C165.747 334.201 165.787 333.982 165.787 333.76C165.787 333.479 165.728 333.225 165.611 332.998C165.497 332.768 165.33 332.584 165.107 332.447C164.884 332.311 164.615 332.242 164.298 332.242C163.919 332.242 163.603 332.316 163.349 332.465C163.099 332.609 162.912 332.812 162.787 333.074C162.662 333.336 162.599 333.637 162.599 333.977H161.515C161.515 333.496 161.621 333.057 161.831 332.658C162.042 332.26 162.355 331.943 162.769 331.709C163.183 331.471 163.693 331.352 164.298 331.352C164.837 331.352 165.298 331.447 165.681 331.639C166.064 331.826 166.357 332.092 166.56 332.436C166.767 332.775 166.871 333.174 166.871 333.631C166.871 333.881 166.828 334.135 166.742 334.393C166.66 334.646 166.544 334.9 166.396 335.154C166.251 335.408 166.081 335.658 165.886 335.904C165.695 336.15 165.49 336.393 165.271 336.631L162.986 339.109H167.263ZM169.501 339.092H169.613C170.238 339.092 170.746 339.004 171.136 338.828C171.527 338.652 171.828 338.416 172.039 338.119C172.249 337.822 172.394 337.488 172.472 337.117C172.55 336.742 172.589 336.357 172.589 335.963V334.656C172.589 334.27 172.544 333.926 172.455 333.625C172.369 333.324 172.247 333.072 172.091 332.869C171.939 332.666 171.765 332.512 171.57 332.406C171.374 332.301 171.167 332.248 170.949 332.248C170.699 332.248 170.474 332.299 170.275 332.4C170.08 332.498 169.914 332.637 169.777 332.816C169.644 332.996 169.542 333.207 169.472 333.449C169.402 333.691 169.367 333.955 169.367 334.24C169.367 334.494 169.398 334.74 169.46 334.979C169.523 335.217 169.619 335.432 169.747 335.623C169.876 335.814 170.037 335.967 170.228 336.08C170.423 336.189 170.652 336.244 170.914 336.244C171.156 336.244 171.382 336.197 171.593 336.104C171.808 336.006 171.997 335.875 172.162 335.711C172.33 335.543 172.462 335.354 172.56 335.143C172.662 334.932 172.72 334.711 172.736 334.48H173.251C173.251 334.805 173.187 335.125 173.058 335.441C172.933 335.754 172.757 336.039 172.531 336.297C172.304 336.555 172.039 336.762 171.734 336.918C171.429 337.07 171.097 337.146 170.738 337.146C170.316 337.146 169.951 337.064 169.642 336.9C169.333 336.736 169.08 336.518 168.88 336.244C168.685 335.971 168.539 335.666 168.441 335.33C168.347 334.99 168.3 334.646 168.3 334.299C168.3 333.893 168.357 333.512 168.47 333.156C168.583 332.801 168.751 332.488 168.974 332.219C169.197 331.945 169.472 331.732 169.8 331.58C170.132 331.428 170.515 331.352 170.949 331.352C171.437 331.352 171.853 331.449 172.197 331.645C172.54 331.84 172.82 332.102 173.035 332.43C173.253 332.758 173.414 333.127 173.515 333.537C173.617 333.947 173.667 334.369 173.667 334.803V335.195C173.667 335.637 173.638 336.086 173.58 336.543C173.525 336.996 173.417 337.43 173.257 337.844C173.101 338.258 172.872 338.629 172.572 338.957C172.271 339.281 171.878 339.539 171.394 339.73C170.914 339.918 170.32 340.012 169.613 340.012H169.501V339.092Z" fill="#172755"/>
<rect x="202" y="310" width="66" height="52" fill="white"/>
<path d="M229.255 335.201H230.029C230.408 335.201 230.72 335.139 230.966 335.014C231.216 334.885 231.402 334.711 231.523 334.492C231.648 334.27 231.71 334.02 231.71 333.742C231.71 333.414 231.656 333.139 231.546 332.916C231.437 332.693 231.273 332.525 231.054 332.412C230.835 332.299 230.558 332.242 230.222 332.242C229.917 332.242 229.648 332.303 229.414 332.424C229.183 332.541 229.001 332.709 228.869 332.928C228.74 333.146 228.675 333.404 228.675 333.701H227.591C227.591 333.268 227.701 332.873 227.919 332.518C228.138 332.162 228.445 331.879 228.839 331.668C229.238 331.457 229.699 331.352 230.222 331.352C230.738 331.352 231.189 331.443 231.576 331.627C231.962 331.807 232.263 332.076 232.478 332.436C232.693 332.791 232.8 333.234 232.8 333.766C232.8 333.98 232.749 334.211 232.648 334.457C232.55 334.699 232.396 334.926 232.185 335.137C231.978 335.348 231.708 335.521 231.376 335.658C231.044 335.791 230.646 335.857 230.181 335.857H229.255V335.201ZM229.255 336.092V335.441H230.181C230.724 335.441 231.173 335.506 231.529 335.635C231.884 335.764 232.164 335.936 232.367 336.15C232.574 336.365 232.718 336.602 232.8 336.859C232.886 337.113 232.929 337.367 232.929 337.621C232.929 338.02 232.861 338.373 232.724 338.682C232.591 338.99 232.402 339.252 232.156 339.467C231.914 339.682 231.628 339.844 231.3 339.953C230.972 340.062 230.615 340.117 230.228 340.117C229.857 340.117 229.507 340.064 229.179 339.959C228.855 339.854 228.568 339.701 228.318 339.502C228.068 339.299 227.872 339.051 227.732 338.758C227.591 338.461 227.521 338.123 227.521 337.744H228.605C228.605 338.041 228.669 338.301 228.798 338.523C228.931 338.746 229.119 338.92 229.361 339.045C229.607 339.166 229.896 339.227 230.228 339.227C230.56 339.227 230.845 339.17 231.083 339.057C231.326 338.939 231.511 338.764 231.64 338.529C231.773 338.295 231.839 338 231.839 337.645C231.839 337.289 231.765 336.998 231.617 336.771C231.468 336.541 231.257 336.371 230.984 336.262C230.714 336.148 230.396 336.092 230.029 336.092H229.255ZM239.779 335.055V336.355C239.779 337.055 239.716 337.645 239.591 338.125C239.466 338.605 239.287 338.992 239.052 339.285C238.818 339.578 238.535 339.791 238.203 339.924C237.874 340.053 237.503 340.117 237.089 340.117C236.761 340.117 236.458 340.076 236.181 339.994C235.904 339.912 235.654 339.781 235.431 339.602C235.212 339.418 235.025 339.18 234.869 338.887C234.712 338.594 234.593 338.238 234.511 337.82C234.429 337.402 234.388 336.914 234.388 336.355V335.055C234.388 334.355 234.451 333.77 234.576 333.297C234.705 332.824 234.886 332.445 235.121 332.16C235.355 331.871 235.636 331.664 235.964 331.539C236.296 331.414 236.667 331.352 237.078 331.352C237.41 331.352 237.714 331.393 237.992 331.475C238.273 331.553 238.523 331.68 238.742 331.855C238.96 332.027 239.146 332.258 239.298 332.547C239.455 332.832 239.574 333.182 239.656 333.596C239.738 334.01 239.779 334.496 239.779 335.055ZM238.689 336.531V334.873C238.689 334.49 238.665 334.154 238.619 333.865C238.576 333.572 238.511 333.322 238.425 333.115C238.339 332.908 238.23 332.74 238.097 332.611C237.968 332.482 237.818 332.389 237.646 332.33C237.478 332.268 237.289 332.236 237.078 332.236C236.82 332.236 236.591 332.285 236.392 332.383C236.193 332.477 236.025 332.627 235.888 332.834C235.755 333.041 235.654 333.312 235.583 333.648C235.513 333.984 235.478 334.393 235.478 334.873V336.531C235.478 336.914 235.499 337.252 235.542 337.545C235.589 337.838 235.658 338.092 235.747 338.307C235.837 338.518 235.947 338.691 236.076 338.828C236.205 338.965 236.353 339.066 236.521 339.133C236.693 339.195 236.882 339.227 237.089 339.227C237.355 339.227 237.587 339.176 237.787 339.074C237.986 338.973 238.152 338.814 238.285 338.6C238.421 338.381 238.523 338.102 238.589 337.762C238.656 337.418 238.689 337.008 238.689 336.531Z" fill="#172755"/>
<rect x="268" y="310" width="66" height="52" fill="white"/>
<path d="M295.255 335.201H296.029C296.408 335.201 296.72 335.139 296.966 335.014C297.216 334.885 297.402 334.711 297.523 334.492C297.648 334.27 297.71 334.02 297.71 333.742C297.71 333.414 297.656 333.139 297.546 332.916C297.437 332.693 297.273 332.525 297.054 332.412C296.835 332.299 296.558 332.242 296.222 332.242C295.917 332.242 295.648 332.303 295.414 332.424C295.183 332.541 295.001 332.709 294.869 332.928C294.74 333.146 294.675 333.404 294.675 333.701H293.591C293.591 333.268 293.701 332.873 293.919 332.518C294.138 332.162 294.445 331.879 294.839 331.668C295.238 331.457 295.699 331.352 296.222 331.352C296.738 331.352 297.189 331.443 297.576 331.627C297.962 331.807 298.263 332.076 298.478 332.436C298.693 332.791 298.8 333.234 298.8 333.766C298.8 333.98 298.749 334.211 298.648 334.457C298.55 334.699 298.396 334.926 298.185 335.137C297.978 335.348 297.708 335.521 297.376 335.658C297.044 335.791 296.646 335.857 296.181 335.857H295.255V335.201ZM295.255 336.092V335.441H296.181C296.724 335.441 297.173 335.506 297.529 335.635C297.884 335.764 298.164 335.936 298.367 336.15C298.574 336.365 298.718 336.602 298.8 336.859C298.886 337.113 298.929 337.367 298.929 337.621C298.929 338.02 298.861 338.373 298.724 338.682C298.591 338.99 298.402 339.252 298.156 339.467C297.914 339.682 297.628 339.844 297.3 339.953C296.972 340.062 296.615 340.117 296.228 340.117C295.857 340.117 295.507 340.064 295.179 339.959C294.855 339.854 294.568 339.701 294.318 339.502C294.068 339.299 293.872 339.051 293.732 338.758C293.591 338.461 293.521 338.123 293.521 337.744H294.605C294.605 338.041 294.669 338.301 294.798 338.523C294.931 338.746 295.119 338.92 295.361 339.045C295.607 339.166 295.896 339.227 296.228 339.227C296.56 339.227 296.845 339.17 297.083 339.057C297.326 338.939 297.511 338.764 297.64 338.529C297.773 338.295 297.839 338 297.839 337.645C297.839 337.289 297.765 336.998 297.617 336.771C297.468 336.541 297.257 336.371 296.984 336.262C296.714 336.148 296.396 336.092 296.029 336.092H295.255ZM303.986 331.422V340H302.902V332.775L300.716 333.572V332.594L303.816 331.422H303.986Z" fill="#172755"/>
<rect x="334" y="310" width="66" height="52" fill="white"/>
<rect x="400" y="310" width="66" height="52" fill="white"/>
<rect x="466" y="310" width="66" height="52" fill="white"/>
<path d="M89.8027 61.4688L92.5918 68.4297L95.3809 61.4688H96.8398V70H95.7148V66.6777L95.8203 63.0918L93.0195 70H92.1582L89.3633 63.1094L89.4746 66.6777V70H88.3496V61.4688H89.8027ZM105.389 66.0098C105.389 66.8457 105.248 67.5762 104.967 68.2012C104.686 68.8223 104.287 69.2969 103.771 69.625C103.256 69.9531 102.654 70.1172 101.967 70.1172C101.295 70.1172 100.699 69.9531 100.18 69.625C99.6602 69.293 99.2559 68.8223 98.9668 68.2129C98.6816 67.5996 98.5352 66.8906 98.5273 66.0859V65.4707C98.5273 64.6504 98.6699 63.9258 98.9551 63.2969C99.2402 62.668 99.6426 62.1875 100.162 61.8555C100.686 61.5195 101.283 61.3516 101.955 61.3516C102.639 61.3516 103.24 61.5176 103.76 61.8496C104.283 62.1777 104.686 62.6562 104.967 63.2852C105.248 63.9102 105.389 64.6387 105.389 65.4707V66.0098ZM104.27 65.459C104.27 64.4473 104.066 63.6719 103.66 63.1328C103.254 62.5898 102.686 62.3184 101.955 62.3184C101.244 62.3184 100.684 62.5898 100.273 63.1328C99.8672 63.6719 99.6582 64.4219 99.6465 65.3828V66.0098C99.6465 66.9902 99.8516 67.7617 100.262 68.3242C100.676 68.8828 101.244 69.1621 101.967 69.1621C102.693 69.1621 103.256 68.8984 103.654 68.3711C104.053 67.8398 104.258 67.0801 104.27 66.0918V65.459ZM113.633 70H112.502L108.207 63.4258V70H107.076V61.4688H108.207L112.514 68.0723V61.4688H113.633V70Z" fill="#8794BA"/>
<path d="M163.004 62.3945H160.262V70H159.143V62.3945H156.406V61.4688H163.004V62.3945ZM170.275 61.4688V67.2695C170.271 68.0742 170.018 68.7324 169.514 69.2441C169.014 69.7559 168.334 70.043 167.475 70.1055L167.176 70.1172C166.242 70.1172 165.498 69.8652 164.943 69.3613C164.389 68.8574 164.107 68.1641 164.1 67.2812V61.4688H165.213V67.2461C165.213 67.8633 165.383 68.3438 165.723 68.6875C166.062 69.0273 166.547 69.1973 167.176 69.1973C167.812 69.1973 168.299 69.0273 168.635 68.6875C168.975 68.3477 169.145 67.8691 169.145 67.252V61.4688H170.275ZM176.873 66.0566H173.176V69.0801H177.471V70H172.051V61.4688H177.412V62.3945H173.176V65.1367H176.873V66.0566Z" fill="#8794BA"/>
<path d="M223.156 67.3105L223.32 68.4355L223.561 67.4219L225.248 61.4688H226.197L227.844 67.4219L228.078 68.4531L228.26 67.3047L229.584 61.4688H230.715L228.646 70H227.621L225.863 63.7832L225.729 63.1328L225.594 63.7832L223.771 70H222.746L220.684 61.4688H221.809L223.156 67.3105ZM236.791 66.0566H233.094V69.0801H237.389V70H231.969V61.4688H237.33V62.3945H233.094V65.1367H236.791V66.0566ZM238.789 70V61.4688H241.197C241.939 61.4688 242.596 61.6328 243.166 61.9609C243.736 62.2891 244.176 62.7559 244.484 63.3613C244.797 63.9668 244.955 64.6621 244.959 65.4473V65.9922C244.959 66.7969 244.803 67.502 244.49 68.1074C244.182 68.7129 243.738 69.1777 243.16 69.502C242.586 69.8262 241.916 69.9922 241.15 70H238.789ZM239.914 62.3945V69.0801H241.098C241.965 69.0801 242.639 68.8105 243.119 68.2715C243.604 67.7324 243.846 66.9648 243.846 65.9688V65.4707C243.846 64.502 243.617 63.75 243.16 63.2148C242.707 62.6758 242.062 62.4023 241.227 62.3945H239.914Z" fill="#8794BA"/>
<path d="M294.137 62.3945H291.395V70H290.275V62.3945H287.539V61.4688H294.137V62.3945ZM301.959 70H300.828V66.0566H296.527V70H295.402V61.4688H296.527V65.1367H300.828V61.4688H301.959V70ZM309.963 61.4688V67.2695C309.959 68.0742 309.705 68.7324 309.201 69.2441C308.701 69.7559 308.021 70.043 307.162 70.1055L306.863 70.1172C305.93 70.1172 305.186 69.8652 304.631 69.3613C304.076 68.8574 303.795 68.1641 303.787 67.2812V61.4688H304.9V67.2461C304.9 67.8633 305.07 68.3438 305.41 68.6875C305.75 69.0273 306.234 69.1973 306.863 69.1973C307.5 69.1973 307.986 69.0273 308.322 68.6875C308.662 68.3477 308.832 67.8691 308.832 67.252V61.4688H309.963Z" fill="#8794BA"/>
<path d="M362.047 66.2324H358.467V70H357.342V61.4688H362.627V62.3945H358.467V65.3125H362.047V66.2324ZM367.104 66.5488H365.1V70H363.969V61.4688H366.793C367.754 61.4688 368.492 61.6875 369.008 62.125C369.527 62.5625 369.787 63.1992 369.787 64.0352C369.787 64.5664 369.643 65.0293 369.354 65.4238C369.068 65.8184 368.67 66.1133 368.158 66.3086L370.162 69.9297V70H368.955L367.104 66.5488ZM365.1 65.6289H366.828C367.387 65.6289 367.83 65.4844 368.158 65.1953C368.49 64.9062 368.656 64.5195 368.656 64.0352C368.656 63.5078 368.498 63.1035 368.182 62.8223C367.869 62.541 367.416 62.3984 366.822 62.3945H365.1V65.6289ZM372.576 70H371.451V61.4688H372.576V70Z" fill="#8794BA"/>
<path d="M423.828 66.1973C422.863 65.9199 422.16 65.5801 421.719 65.1777C421.281 64.7715 421.062 64.2715 421.062 63.6777C421.062 63.0059 421.33 62.4512 421.865 62.0137C422.404 61.5723 423.104 61.3516 423.963 61.3516C424.549 61.3516 425.07 61.4648 425.527 61.6914C425.988 61.918 426.344 62.2305 426.594 62.6289C426.848 63.0273 426.975 63.4629 426.975 63.9355H425.844C425.844 63.4199 425.68 63.0156 425.352 62.7227C425.023 62.4258 424.561 62.2773 423.963 62.2773C423.408 62.2773 422.975 62.4004 422.662 62.6465C422.354 62.8887 422.199 63.2266 422.199 63.6602C422.199 64.0078 422.346 64.3027 422.639 64.5449C422.936 64.7832 423.438 65.002 424.145 65.2012C424.855 65.4004 425.41 65.6211 425.809 65.8633C426.211 66.1016 426.508 66.3809 426.699 66.7012C426.895 67.0215 426.992 67.3984 426.992 67.832C426.992 68.5234 426.723 69.0781 426.184 69.4961C425.645 69.9102 424.924 70.1172 424.021 70.1172C423.436 70.1172 422.889 70.0059 422.381 69.7832C421.873 69.5566 421.48 69.248 421.203 68.8574C420.93 68.4668 420.793 68.0234 420.793 67.5273H421.924C421.924 68.043 422.113 68.4512 422.492 68.752C422.875 69.0488 423.385 69.1973 424.021 69.1973C424.615 69.1973 425.07 69.0762 425.387 68.834C425.703 68.5918 425.861 68.2617 425.861 67.8438C425.861 67.4258 425.715 67.1035 425.422 66.877C425.129 66.6465 424.598 66.4199 423.828 66.1973ZM433.15 67.7734H429.576L428.773 70H427.613L430.871 61.4688H431.855L435.119 70H433.965L433.15 67.7734ZM429.916 66.8477H432.816L431.363 62.8574L429.916 66.8477ZM441.4 62.3945H438.658V70H437.539V62.3945H434.803V61.4688H441.4V62.3945Z" fill="#8794BA"/>
<path d="M488.773 66.1973C487.809 65.9199 487.105 65.5801 486.664 65.1777C486.227 64.7715 486.008 64.2715 486.008 63.6777C486.008 63.0059 486.275 62.4512 486.811 62.0137C487.35 61.5723 488.049 61.3516 488.908 61.3516C489.494 61.3516 490.016 61.4648 490.473 61.6914C490.934 61.918 491.289 62.2305 491.539 62.6289C491.793 63.0273 491.92 63.4629 491.92 63.9355H490.789C490.789 63.4199 490.625 63.0156 490.297 62.7227C489.969 62.4258 489.506 62.2773 488.908 62.2773C488.354 62.2773 487.92 62.4004 487.607 62.6465C487.299 62.8887 487.145 63.2266 487.145 63.6602C487.145 64.0078 487.291 64.3027 487.584 64.5449C487.881 64.7832 488.383 65.002 489.09 65.2012C489.801 65.4004 490.355 65.6211 490.754 65.8633C491.156 66.1016 491.453 66.3809 491.645 66.7012C491.84 67.0215 491.938 67.3984 491.938 67.832C491.938 68.5234 491.668 69.0781 491.129 69.4961C490.59 69.9102 489.869 70.1172 488.967 70.1172C488.381 70.1172 487.834 70.0059 487.326 69.7832C486.818 69.5566 486.426 69.248 486.148 68.8574C485.875 68.4668 485.738 68.0234 485.738 67.5273H486.869C486.869 68.043 487.059 68.4512 487.438 68.752C487.82 69.0488 488.33 69.1973 488.967 69.1973C489.561 69.1973 490.016 69.0762 490.332 68.834C490.648 68.5918 490.807 68.2617 490.807 67.8438C490.807 67.4258 490.66 67.1035 490.367 66.877C490.074 66.6465 489.543 66.4199 488.773 66.1973ZM499.391 61.4688V67.2695C499.387 68.0742 499.133 68.7324 498.629 69.2441C498.129 69.7559 497.449 70.043 496.59 70.1055L496.291 70.1172C495.357 70.1172 494.613 69.8652 494.059 69.3613C493.504 68.8574 493.223 68.1641 493.215 67.2812V61.4688H494.328V67.2461C494.328 67.8633 494.498 68.3438 494.838 68.6875C495.178 69.0273 495.662 69.1973 496.291 69.1973C496.928 69.1973 497.414 69.0273 497.75 68.6875C498.09 68.3477 498.26 67.8691 498.26 67.252V61.4688H499.391ZM507.723 70H506.592L502.297 63.4258V70H501.166V61.4688H502.297L506.604 68.0723V61.4688H507.723V70Z" fill="#8794BA"/>
</svg>
