<svg width="25" height="20" viewBox="0 0 25 20" fill="none" xmlns="http://www.w3.org/2000/svg">
<path d="M8.13056 20C17.4173 20 22.4958 12.3061 22.4958 5.63472C22.4958 5.41612 22.4914 5.19865 22.4813 4.98202C23.4671 4.26942 24.3241 3.37993 25 2.36786C24.0954 2.76978 23.1219 3.04043 22.1006 3.16246C23.1429 2.53747 23.9434 1.54834 24.321 0.369453C23.3453 0.947983 22.2649 1.36838 21.1151 1.59509C20.1935 0.613796 18.8814 0 17.4296 0C14.641 0 12.3798 2.26122 12.3798 5.04835C12.3798 5.44467 12.4243 5.8298 12.5105 6.19953C8.31472 5.98878 4.59388 3.97946 2.104 0.924752C1.66989 1.67066 1.41995 2.53775 1.41995 3.46222C1.41995 5.21376 2.31139 6.76015 3.66689 7.66503C2.8387 7.63956 2.06061 7.41173 1.3802 7.03332C1.37908 7.05431 1.37908 7.07558 1.37908 7.09769C1.37908 9.54308 3.11971 11.5846 5.42963 12.0472C5.0056 12.1628 4.55946 12.225 4.09876 12.225C3.77353 12.225 3.45726 12.1925 3.14966 12.134C3.79228 14.1397 5.65634 15.5996 7.86634 15.6407C6.13803 16.9951 3.96106 17.802 1.59572 17.802C1.18848 17.802 0.78656 17.7788 0.391357 17.7321C2.62571 19.164 5.27877 20 8.13056 20Z" fill="#8794BA"/>
</svg>
